<?xml version="1.0" encoding="UTF-8"?> <svg xmlns="http://www.w3.org/2000/svg" viewBox="0 0 148.66 148.66"><defs><style>.cls-1{fill:#c9332a;}.cls-2{font-size:12.81px;font-family:Exo2.0-SemiBold, "Exo 2.0";font-weight:600;}.cls-2,.cls-3{fill:#fff;}</style></defs><g id="Layer_2" data-name="Layer 2"><g id="Capa_1" data-name="Capa 1"><circle class="cls-1" cx="74.33" cy="74.33" r="74.33"></circle><text class="cls-2" transform="translate(28.38 107.67)">CONFIANZA LFE</text><path class="cls-3" d="M49.81,90.78a1.45,1.45,0,0,1-1.41-1.16c-.14-.7-3.31-17,2.71-24.37a9.61,9.61,0,0,1,7.82-3.55c4,0,6.74,2.36,8.88,4.67l.42.45a84.11,84.11,0,0,1,6.25,7.39c3.3-4.44,7-8.45,7-8.51a12,12,0,0,1,9.08-4,8,8,0,0,1,6.6,3.07c2.41,3,3.41,8.16,3,15.28a66.88,66.88,0,0,1-1.3,9.6,1.44,1.44,0,0,1-1.87,1,1.51,1.51,0,0,1-.93-1.77c1-4.64,2.79-17.45-1.14-22.36a5.21,5.21,0,0,0-4.34-2,9.08,9.08,0,0,0-7,3.08,110.6,110.6,0,0,0-7.41,9.08A19.8,19.8,0,0,1,79,83.13a7.16,7.16,0,0,1-1.21,5.72,4.58,4.58,0,0,1-3.64,1.67,4.64,4.64,0,0,1-3.78-1.75,6.71,6.71,0,0,1-1-5.68,22.46,22.46,0,0,1,3.32-6.4,73.45,73.45,0,0,0-6.58-7.9l-.43-.46c-1.8-2-3.86-3.75-6.76-3.75a6.77,6.77,0,0,0-5.59,2.5c-2.09,2.55-3.13,7.12-3,13.22a56,56,0,0,0,.89,8.75,1.44,1.44,0,0,1-1.13,1.7A1.43,1.43,0,0,1,49.81,90.78ZM74.4,79.35a16.42,16.42,0,0,0-2.21,4.41A3.92,3.92,0,0,0,72.63,87a1.8,1.8,0,0,0,1.51.66A1.69,1.69,0,0,0,75.55,87a4.3,4.3,0,0,0,.6-3.33A14.86,14.86,0,0,0,74.4,79.35Z"></path><path class="cls-3" d="M58.35,59.33a8.54,8.54,0,1,1,7.46-7.25A8.56,8.56,0,0,1,58.35,59.33Zm.13-14.47a6.09,6.09,0,1,0,4.9,5A6.1,6.1,0,0,0,58.48,44.86Z"></path><path class="cls-3" d="M100.07,48.15l0-1.68a7.34,7.34,0,0,0-1.72-4.81,8.84,8.84,0,0,0-4.05-2.75,1.69,1.69,0,0,0-1.72-1.54l-2.34,0a1.68,1.68,0,0,0-1.77,1.48,8.88,8.88,0,0,0-4.12,2.64,7.35,7.35,0,0,0-1.87,4.76l0,1.67a1.61,1.61,0,0,0-1.19,1.48A1.67,1.67,0,0,0,83,51l16.42.24a1.67,1.67,0,0,0,1.77-1.56A1.61,1.61,0,0,0,100.07,48.15Zm-16.4-1.92a6.61,6.61,0,0,1,2.45-4.93l0,1.8a.55.55,0,0,0,.58.53.56.56,0,0,0,.59-.52l0-2.62A6.87,6.87,0,0,1,88.47,40l-.06,4.23a.59.59,0,0,0,1.17,0l.07-5h0v-.31a.56.56,0,0,1,.6-.52l2.33,0a.57.57,0,0,1,.58.54v.31h0l-.07,5a.55.55,0,0,0,.58.54.56.56,0,0,0,.59-.52L94.31,40a8.31,8.31,0,0,1,1.16.57l0,2.62a.56.56,0,0,0,.58.54.57.57,0,0,0,.59-.52l0-1.79a6.56,6.56,0,0,1,2.3,5l0,1.59-15.25-.22Zm15.78,3.93L83,49.93a.53.53,0,1,1,0-1.06l16.42.24a.53.53,0,1,1,0,1Z"></path><path class="cls-3" d="M91.11,59.38a8.53,8.53,0,0,1-8.41-8.65l2.44,0a6.09,6.09,0,1,0,12.18.18l2.45,0A8.54,8.54,0,0,1,91.11,59.38Z"></path></g></g></svg> 